<?xml version="1.0" encoding="iso-8859-1"?>
<!-- Generator: Adobe Illustrator 19.0.0, SVG Export Plug-In . SVG Version: 6.00 Build 0)  -->
<svg version="1.1" id="Capa_1" xmlns="http://www.w3.org/2000/svg" xmlns:xlink="http://www.w3.org/1999/xlink" x="0px" y="0px"
	 viewBox="0 0 512 512" style="enable-background:new 0 0 512 512;" xml:space="preserve">
<g>
	<g>
		<path d="M175.211,0c-39.528,0-71.687,32.159-71.687,71.688s32.158,71.688,71.687,71.688s71.688-32.159,71.688-71.688
			S214.739,0,175.211,0z M175.211,123.376c-28.5,0-51.687-23.187-51.687-51.688c0-28.501,23.187-51.688,51.687-51.688
			c28.501,0,51.688,23.187,51.688,51.688C226.899,100.189,203.711,123.376,175.211,123.376z"/>
	</g>
</g>
<g>
	<g>
		<path d="M336.788,0C297.259,0,265.1,32.159,265.1,71.688s32.159,71.688,71.688,71.688s71.688-32.159,71.688-71.688
			S376.317,0,336.788,0z M336.788,123.376c-28.501,0-51.688-23.187-51.688-51.688C285.1,43.187,308.288,20,336.788,20
			c28.501,0,51.688,23.187,51.688,51.688C388.476,100.189,365.289,123.376,336.788,123.376z"/>
	</g>
</g>
<g>
	<g>
		<path d="M450.014,118.733c-34.054,0-61.76,27.706-61.76,61.761c0,34.054,27.705,61.76,61.76,61.76s61.76-27.706,61.761-61.76
			C511.775,146.439,484.069,118.733,450.014,118.733z M450.014,222.254c-23.027,0-41.76-18.734-41.76-41.76
			c0-23.027,18.733-41.761,41.76-41.761c23.026,0,41.76,18.734,41.761,41.761C491.775,203.521,473.041,222.254,450.014,222.254z"/>
	</g>
</g>
<g>
	<g>
		<path d="M61.986,118.733c-34.055,0-61.761,27.706-61.761,61.761c0,34.054,27.706,61.76,61.761,61.76s61.761-27.706,61.76-61.76
			C123.746,146.439,96.041,118.733,61.986,118.733z M61.986,222.254c-23.027,0-41.761-18.734-41.761-41.76
			c0-23.027,18.734-41.761,41.761-41.761c23.027,0,41.761,18.734,41.76,41.761C103.746,203.521,85.013,222.254,61.986,222.254z"/>
	</g>
</g>
<g>
	<g>
		<path d="M256,169.663c-94.383,0-171.168,76.787-171.168,171.169S161.617,512,256,512s171.168-76.787,171.168-171.169
			S350.383,169.663,256,169.663z M256,492c-83.354,0-151.168-67.814-151.168-151.169c0-83.354,67.814-151.168,151.168-151.168
			s151.168,67.814,151.168,151.169C407.168,424.186,339.354,492,256,492z"/>
	</g>
</g>
<g>
	<g>
		<path d="M372.183,376.705c-5.123-2.066-10.95,0.416-13.013,5.538c-1.086,2.695-2.297,5.387-3.599,8
			C336.583,428.336,298.43,452,256,452c-61.298,0-111.169-49.87-111.169-111.168c0-61.299,49.871-111.169,111.169-111.169
			c5.523,0,10-4.477,10-10c0-5.523-4.477-10-10-10c-72.326,0-131.168,58.842-131.168,131.169C124.832,413.158,183.673,472,256,472
			c24.832,0,49.024-7.003,69.96-20.252c20.356-12.882,36.785-31.064,47.511-52.583c1.537-3.085,2.967-6.263,4.25-9.447
			C379.785,384.595,377.306,378.769,372.183,376.705z"/>
	</g>
</g>
<g>
	<g>
		<path d="M386.92,342.5c-0.13-0.64-0.32-1.27-0.57-1.87c-0.25-0.61-0.56-1.19-0.92-1.73c-0.36-0.55-0.78-1.06-1.24-1.52
			c-2.33-2.32-5.78-3.39-9.03-2.73c-0.64,0.13-1.27,0.32-1.87,0.57c-0.6,0.25-1.18,0.56-1.73,0.92c-0.54,0.36-1.06,0.78-1.52,1.24
			c-0.46,0.46-0.88,0.97-1.24,1.52c-0.36,0.54-0.67,1.12-0.92,1.73c-0.25,0.6-0.44,1.23-0.57,1.87s-0.19,1.3-0.19,1.95
			c0,0.65,0.06,1.31,0.19,1.96c0.13,0.63,0.32,1.26,0.57,1.87c0.25,0.6,0.56,1.18,0.92,1.72c0.36,0.55,0.78,1.06,1.24,1.52
			c0.46,0.46,0.98,0.88,1.52,1.25c0.55,0.36,1.13,0.67,1.73,0.92c0.6,0.25,1.23,0.44,1.87,0.57c0.65,0.13,1.3,0.19,1.96,0.19
			c2.63,0,5.21-1.06,7.07-2.93c0.46-0.46,0.88-0.97,1.24-1.52c0.36-0.54,0.67-1.12,0.92-1.72c0.25-0.61,0.44-1.24,0.57-1.87
			c0.13-0.65,0.19-1.31,0.19-1.96S387.05,343.14,386.92,342.5z"/>
	</g>
</g>
<g>
	<g>
		<path d="M327.512,304.138h-34.818V269.32c0-5.523-4.477-10-10-10h-53.388c-5.523,0-10,4.477-10,10v34.818h-34.818
			c-5.523,0-10,4.477-10,10v53.388c0,5.523,4.477,10,10,10h34.818v34.818c0,5.523,4.477,10,10,10h53.388c5.523,0,10-4.477,10-10
			v-34.818h34.818c5.523,0,10-4.477,10-10v-53.388C337.512,308.615,333.035,304.138,327.512,304.138z M317.512,357.526h-34.818
			c-5.523,0-10,4.477-10,10v34.818h-33.388v-34.818c0-5.523-4.477-10-10-10h-34.818v-33.388h34.818c5.523,0,10-4.477,10-10V279.32
			h33.388v34.818c0,5.523,4.477,10,10,10h34.818V357.526z"/>
	</g>
</g>
<g>
</g>
<g>
</g>
<g>
</g>
<g>
</g>
<g>
</g>
<g>
</g>
<g>
</g>
<g>
</g>
<g>
</g>
<g>
</g>
<g>
</g>
<g>
</g>
<g>
</g>
<g>
</g>
<g>
</g>
</svg>
