<?xml version="1.0" encoding="utf-8"?>
<!-- Generator: Adobe Illustrator 23.0.4, SVG Export Plug-In . SVG Version: 6.00 Build 0)  -->
<svg version="1.1" id="Capa_1" xmlns="http://www.w3.org/2000/svg" xmlns:xlink="http://www.w3.org/1999/xlink" x="0px" y="0px"
	 viewBox="0 0 511 511" style="enable-background:new 0 0 511 511;" xml:space="preserve">
<path d="M373.9,430.5c14.8,0,26.8-12,26.8-26.8c0-14.8-12-26.8-26.8-26.8c-14.8,0-26.8,12-26.8,26.8
	C347.1,418.5,359.1,430.5,373.9,430.5z M373.9,391.9c6.5,0,11.8,5.3,11.8,11.8c0,6.5-5.3,11.8-11.8,11.8c-6.5,0-11.8-5.3-11.8-11.8
	C362,397.2,367.4,391.9,373.9,391.9z"/>
<path d="M331.3,329c-17.1,0-30.9,13.9-30.9,30.9c0,17.1,13.9,30.9,30.9,30.9s30.9-13.9,30.9-30.9C362.3,342.9,348.4,329,331.3,329z
	 M331.3,375.9c-8.8,0-16-7.2-16-16c0-8.8,7.2-16,16-16c8.8,0,16,7.2,16,16C347.3,368.7,340.1,375.9,331.3,375.9z"/>
<path d="M478.1,61.8c-2.9-2.9-7.7-2.9-10.6,0c-2.9,2.9-2.9,7.7,0,10.6c30.6,30.6,29.4,28.8,29.4,31c0,2.1,0.1,1.4-15.5,17.1
	c-1.5,1.5-3.9,1.5-5.4,0c-91.1-91.1-85.7-85-85.7-87.3c0-0.6,0.1-1.7,1.1-2.7c15.6-15.7,15-15.5,17.1-15.5c0.6,0,1.7,0.1,2.7,1.1
	l31.6,31.6c2.9,2.9,7.7,2.9,10.6,0c2.9-2.9,2.9-7.7,0-10.6L421.8,5.5c-7.3-7.3-19.2-7.3-26.5,0l-14.4,14.4c-7.3,7.3-7.3,19.2,0,26.5
	l12.9,12.9l-48.5,48.5l-45.8-45.8c-7.3-7.3-19.2-7.3-26.5,0l-8.4,8.4c-7.3,7.3-7.3,19.2,0,26.5l12.8,12.8
	C277.3,109.9,95,292.2,95.1,292.1c-13.5,13.7-19.7,29.9-19.7,47.1c0,17.2,6.5,33.4,18.3,45.7l-9.2,9.2c-6.1,6.1-6.1,16,0,22l0.3,0.3
	L3.2,498.1c-2.9,2.9-2.9,7.7,0,10.6c2.9,2.9,7.7,2.9,10.6,0L95.5,427l0.3,0.3c6.1,6.1,16,6.1,22,0l9.2-9.2
	c12.6,12.1,29.1,18.3,45.7,18.3c12.3,0,24.6-3.4,35.4-10.2c17.8,11.5,41.3-1.3,41.3-22.5c0-4.8-1.2-9.2-3.4-13.1l3.8-3.8
	c27.1,15.5,57.8-14.9,42.2-42.2c19.7-19.7,97.7-97.7,110.1-110.1l12.8,12.8c7.3,7.3,19.2,7.3,26.5,0l8.4-8.4
	c7.3-7.3,7.3-19.2,0-26.5L404,166.6l48.5-48.5l12.9,12.9c7.3,7.3,19.2,7.3,26.5,0l14.4-14.4c7.3-7.3,7.3-19.2,0-26.5L478.1,61.8z
	 M288,120.4l22.4,22.4L228.1,225c-1.5-1.1-2.8-2.4-3.9-3.9c-4.1-5.5-12.2-5.5-16.3,0c-6.2,8.3-17.3,9.9-25.4,4.8L288,120.4z
	 M321,153.4l37.6,37.6L323.5,226c-2.1-1.3-4-3-5.4-4.9c-4.1-5.5-12.2-5.5-16.3,0c-7.7,10.3-23,10.2-30.7,0c-4.1-5.5-12.3-5.4-16.3,0
	c-0.8,1.5-4.1,4.6-7.8,6.1L321,153.4z M107.3,416.8c-0.2,0.2-0.6,0.2-0.9,0c-8.6-8.6-2.6-2.6-11.3-11.3c-0.2-0.2-0.2-0.6,0-0.9
	l9.2-9.2l12.1,12.1L107.3,416.8z M210.8,403.7c0-10,11.7-15.4,19.3-9.2c2.7,2.2,4.4,5.5,4.4,9.2
	C234.5,419.1,210.8,419.6,210.8,403.7z M252.2,369.1c-9.5-13.4,5.1-30.6,19.9-23.6c5.6,2.7,9.1,8.3,9.1,14.4
	C281.1,375.3,261.3,381.9,252.2,369.1z M281.7,333.8c-27.2-17.3-60.5,14.7-42.7,42.7l-3.7,3.7c-22.2-12-47.8,11-37.1,34.6
	c-19.7,11.3-45.1,8.3-61.6-8.1l-31.3-31.3c-9.6-9.6-14.9-22.4-14.9-36.1c0-11.3,3.6-22.1,10.3-30.9l5.5,5.5c2.9,2.9,7.7,2.9,10.6,0
	c2.9-2.9,2.9-7.7,0-10.6l-5.9-5.9l16.3-16.3l5.9,5.9c2.9,2.9,7.7,2.9,10.6,0c2.9-2.9,2.9-7.7,0-10.6l-5.9-5.9l16.3-16.3l5.9,5.9
	c2.9,2.9,7.7,2.9,10.6,0c2.9-2.9,2.9-7.7,0-10.6l-5.9-5.9l7-7c12.9,10.1,31.9,9.6,44.3-2.3c13.1,12.5,33.9,12.5,47,0
	c13.1,12.5,33.9,12.5,47,0c13.1,12.5,33.9,12.5,47,0c4.5,4.3,9.9,7.1,15.6,8.5L281.7,333.8z M388.5,227c-8.2,3.8-17.9,1.5-23.4-5.9
	c-2.7-3.6-7.6-5.3-12.3-3.2l16.4-16.4l22.4,22.4L388.5,227z M439.2,223c1.5,1.5,1.5,3.9,0,5.4l-8.4,8.4c-1.5,1.5-3.9,1.5-5.4,0
	c-18-18-132.2-132.2-150.3-150.3c-1.5-1.5-1.5-3.9,0-5.4l8.4-8.4c1.5-1.5,3.9-1.5,5.4,0C294.2,78,431.9,215.7,439.2,223z M393.5,156
	l-37.6-37.6l48.5-48.5l37.6,37.6L393.5,156z"/>
<path d="M289.6,395c-42.9,8.6-70.7,70.9-42.7,103c11.4,13.1,29,16.5,47,9.2c2.8-1.1,6-1.1,8.8,0c25.9,10.5,47.7-1.6,55.3-23.8
	c1.3-3.9-0.7-8.2-4.6-9.5c-3.9-1.4-8.2,0.7-9.5,4.6c-2.5,7.3-7.2,12.8-13.2,15.5c-6.4,2.9-14.1,2.6-22.4-0.7c-6.5-2.6-13.6-2.6-20,0
	c-12.2,5-22.9,3.1-30.1-5.1c-19.9-22.9,1.7-71.6,34.6-78.6c15.1-3.3,34,7.9,44.9,26.7c2.3,4,4.1,8,5.5,12.1c1.3,3.9,5.6,6,9.5,4.7
	c3.9-1.3,6-5.6,4.7-9.5c-1.7-5-4-10-6.7-14.8C336.3,404.2,311.2,390.3,289.6,395z"/>
</svg>
